<?xml version="1.0" encoding="utf-8"?>
<!-- Generator: Adobe Illustrator 21.0.0, SVG Export Plug-In . SVG Version: 6.00 Build 0)  -->
<svg version="1.1" id="Layer_1" xmlns="http://www.w3.org/2000/svg" xmlns:xlink="http://www.w3.org/1999/xlink" x="0px" y="0px"
	 viewBox="0 0 57.8 58.5" style="enable-background:new 0 0 57.8 58.5;" xml:space="preserve">
<style type="text/css">
	.st0{fill:#245A9B;}
	.st1{fill-rule:evenodd;clip-rule:evenodd;fill:#FFFFFF;}
</style>
<g id="Layer_2">
	<g>
		<g>
			<path class="st0" d="M29.3,56.3C14.3,56.3,2,44,2,29c0-15,12.2-27.3,27.3-27.3c15,0,27.3,12.2,27.3,27.3
				C56.6,44,44.4,56.3,29.3,56.3z"/>
		</g>
		<g>
			<path class="st1" d="M25,29.1v15.8c0,0.2,0.2,0.4,0.4,0.4h5.9c0.2,0,0.4-0.2,0.4-0.4V28.8H36c0.2,0,0.4-0.2,0.4-0.4l0.4-4.8
				c0-0.2-0.2-0.4-0.4-0.4h-4.7v-3.4c0-0.8,0.7-1.5,1.5-1.5h3.3c0.2,0,0.4-0.2,0.4-0.4V13c0-0.2-0.2-0.4-0.4-0.4h-5.5
				c-3.3,0-5.9,2.6-5.9,5.9v4.7h-2.9c-0.2,0-0.4,0.2-0.4,0.4v4.8c0,0.2,0.2,0.4,0.4,0.4H25V29.1z"/>
		</g>
	</g>
</g>
</svg>
