<?xml version="1.0" encoding="utf-8"?>
<!-- Generator: Adobe Illustrator 21.0.0, SVG Export Plug-In . SVG Version: 6.00 Build 0)  -->
<svg version="1.1" id="Layer_1" xmlns="http://www.w3.org/2000/svg" xmlns:xlink="http://www.w3.org/1999/xlink" x="0px" y="0px"
	 viewBox="0 0 48.7 41" style="enable-background:new 0 0 48.7 41;" xml:space="preserve">
<style type="text/css">
	.st0{fill:#FFFFFF;}
</style>
<g>
	<path class="st0" d="M9.4,20.1c-2.3,0-4.3-1.9-4.3-4.3V7.9c0-2.3,1.9-4.3,4.3-4.3c2.3,0,4.3,1.9,4.3,4.3v7.9
		C13.7,18.2,11.7,20.1,9.4,20.1z M9.4,5.3c-1.5,0-2.6,1.2-2.6,2.6v7.9c0,1.5,1.2,2.6,2.6,2.6c1.5,0,2.6-1.2,2.6-2.6V7.9
		C12,6.5,10.9,5.3,9.4,5.3z"/>
	<path class="st0" d="M39.3,29.3H26.9c-0.4,0-0.8-0.4-0.8-0.8V17.6c0-0.4-0.3-0.7-0.7-0.7H12.8c-0.4,0-0.8-0.4-0.8-0.8
		c0-0.4,0.4-0.8,0.8-0.8h12.5c1.3,0,2.3,1.1,2.3,2.3v10.1h10.7V13.4c0-3.4-2.7-6.1-6.1-6.1H12.5c-0.4,0-0.8-0.4-0.8-0.8
		c0-0.4,0.4-0.8,0.8-0.8h19.8c4.3,0,7.7,3.5,7.7,7.7v15C40.1,28.9,39.7,29.3,39.3,29.3z"/>
	<path class="st0" d="M32.4,16.9c-1.9,0-3.5-1.6-3.5-3.5c0-1.9,1.6-3.5,3.5-3.5c1.9,0,3.5,1.6,3.5,3.5
		C35.8,15.4,34.3,16.9,32.4,16.9z M32.4,11.6c-1,0-1.8,0.8-1.8,1.8c0,1,0.8,1.8,1.8,1.8c1,0,1.8-0.8,1.8-1.8
		C34.2,12.4,33.4,11.6,32.4,11.6z"/>
	<path class="st0" d="M35.5,21.7h-5.2c-0.4,0-0.8-0.4-0.8-0.8c0-0.4,0.4-0.8,0.8-0.8h5.2c0.4,0,0.8,0.4,0.8,0.8
		C36.3,21.3,35.9,21.7,35.5,21.7z"/>
	<path class="st0" d="M35.5,25.4h-5.2c-0.4,0-0.8-0.4-0.8-0.8s0.4-0.8,0.8-0.8h5.2c0.4,0,0.8,0.4,0.8,0.8S35.9,25.4,35.5,25.4z"/>
	<path class="st0" d="M23.4,13.3H12.8c-0.4,0-0.8-0.4-0.8-0.8s0.4-0.8,0.8-0.8h10.5c0.4,0,0.8,0.4,0.8,0.8S23.8,13.3,23.4,13.3z"/>
	<path class="st0" d="M43.9,24.9c-1.4,0-2.6-1.2-2.6-2.6V12.2c0-1.4,1.2-2.6,2.6-2.6s2.6,1.2,2.6,2.6v10.1
		C46.5,23.8,45.4,24.9,43.9,24.9z M43.9,11.3c-0.5,0-1,0.4-1,1v10.1c0,0.5,0.4,1,1,1c0.5,0,1-0.4,1-1V12.2
		C44.9,11.7,44.5,11.3,43.9,11.3z"/>
	<path class="st0" d="M42.2,20h-2.9c-0.4,0-0.8-0.4-0.8-0.8v-3.8c0-0.4,0.4-0.8,0.8-0.8h2.9c0.4,0,0.8,0.4,0.8,0.8v3.8
		C43,19.6,42.6,20,42.2,20z M40.1,18.4h1.3v-2.2h-1.3V18.4z"/>
	<path class="st0" d="M39.3,38.5H4.1c-0.4,0-0.8-0.4-0.8-0.8v-5.2c0-2.7,2.2-4.9,4.9-4.9h31.1c0.4,0,0.8,0.4,0.8,0.8v9.2
		C40.1,38.1,39.7,38.5,39.3,38.5z M4.9,36.9h33.6v-7.6H8.1c-1.8,0-3.2,1.5-3.2,3.2V36.9z"/>
	<path class="st0" d="M9.4,25.4c-0.4,0-0.8-0.4-0.8-0.8v-5.3c0-0.4,0.4-0.8,0.8-0.8s0.8,0.4,0.8,0.8v5.3
		C10.2,25.1,9.8,25.4,9.4,25.4z"/>
	<path class="st0" d="M33.7,33.9h-2c-0.4,0-0.8-0.4-0.8-0.8c0-0.4,0.4-0.8,0.8-0.8h2c0.4,0,0.8,0.4,0.8,0.8
		C34.5,33.5,34.1,33.9,33.7,33.9z"/>
	<path class="st0" d="M28.1,33.9h-3.6c-0.4,0-0.8-0.4-0.8-0.8c0-0.4,0.4-0.8,0.8-0.8h3.6c0.4,0,0.8,0.4,0.8,0.8
		C28.9,33.5,28.5,33.9,28.1,33.9z M21,33.9h-3.6c-0.4,0-0.8-0.4-0.8-0.8c0-0.4,0.4-0.8,0.8-0.8H21c0.4,0,0.8,0.4,0.8,0.8
		C21.8,33.5,21.4,33.9,21,33.9z"/>
	<path class="st0" d="M13.8,33.9h-2c-0.4,0-0.8-0.4-0.8-0.8c0-0.4,0.4-0.8,0.8-0.8h2c0.4,0,0.8,0.4,0.8,0.8
		C14.6,33.5,14.3,33.9,13.8,33.9z"/>
</g>
</svg>
