<?xml version="1.0" encoding="utf-8"?>
<!-- Generator: Adobe Illustrator 21.0.0, SVG Export Plug-In . SVG Version: 6.00 Build 0)  -->
<svg version="1.1" id="Layer_1" xmlns="http://www.w3.org/2000/svg" xmlns:xlink="http://www.w3.org/1999/xlink" x="0px" y="0px"
	 viewBox="0 0 57.8 58.5" style="enable-background:new 0 0 57.8 58.5;" xml:space="preserve">
<style type="text/css">
	.st0{fill:#FFFFFF;}
	.st1{fill:url(#SVGID_1_);}
</style>
<g id="Layer_2">
	<g>
		<circle class="st0" cx="28.9" cy="29" r="23.8"/>
		<linearGradient id="SVGID_1_" gradientUnits="userSpaceOnUse" x1="6.9926" y1="47.8856" x2="74.2632" y2="-9.3945">
			<stop  offset="1.104800e-03" style="stop-color:#FFE185"/>
			<stop  offset="0.2094" style="stop-color:#FFBB36"/>
			<stop  offset="0.3765" style="stop-color:#FF5176"/>
			<stop  offset="0.5238" style="stop-color:#F63395"/>
			<stop  offset="0.7394" style="stop-color:#A436D2"/>
			<stop  offset="1" style="stop-color:#5F4EED"/>
		</linearGradient>
		<path class="st1" d="M28.9,56.3c-15,0-27.1-12.2-27.1-27.1c0-15,12.2-27.1,27.1-27.1S56,14.3,56,29.2C56,44.2,43.9,56.3,28.9,56.3
			z M38,18.2c-1.1,0-2,0.9-2,2c0,1.1,0.9,2,2,2c1.1,0,2-0.9,2-2C40.1,19.1,39.2,18.2,38,18.2z M29.1,20.8c-4.6,0-8.4,3.8-8.4,8.4
			s3.8,8.4,8.4,8.4c4.6,0,8.4-3.8,8.4-8.4S33.8,20.8,29.1,20.8z M29.1,34.6c-3,0-5.4-2.4-5.4-5.4s2.4-5.4,5.4-5.4
			c3,0,5.4,2.4,5.4,5.4S32.1,34.6,29.1,34.6z M46.1,22.2c0-5.7-4.6-10.3-10.3-10.3H22.3c-5.7,0-10.3,4.6-10.3,10.3v13.6
			c0,5.7,4.6,10.3,10.3,10.3h13.6c5.7,0,10.3-4.6,10.3-10.3V22.2z M42.9,35.8c0,3.9-3.2,7.1-7.1,7.1H22.3c-3.9,0-7.1-3.2-7.1-7.1
			V22.2c0-3.9,3.2-7.1,7.1-7.1h13.6c3.9,0,7.1,3.2,7.1,7.1V35.8z"/>
	</g>
</g>
</svg>
