<?xml version="1.0" encoding="utf-8"?>
<!-- Generator: Adobe Illustrator 21.0.0, SVG Export Plug-In . SVG Version: 6.00 Build 0)  -->
<svg version="1.1" id="Layer_1" xmlns="http://www.w3.org/2000/svg" xmlns:xlink="http://www.w3.org/1999/xlink" x="0px" y="0px"
	 viewBox="0 0 57.8 58.5" style="enable-background:new 0 0 57.8 58.5;" xml:space="preserve">
<style type="text/css">
	.st0{fill:#007BBC;}
	.st1{fill:#FFFFFF;}
</style>
<g id="Layer_2">
	<g>
		<g>
			<g>
				<path class="st0" d="M28.9,56.5c-15,0-27.2-12.2-27.2-27.2C1.7,14.2,13.9,2,28.9,2c15,0,27.2,12.2,27.2,27.2
					C56.1,44.3,43.9,56.5,28.9,56.5z"/>
			</g>
			<g>
				<g>
					<path class="st1" d="M44.3,31.3v10.2c0,0.3-0.2,0.5-0.5,0.5h-5.3c-0.3,0-0.5-0.2-0.5-0.5V32c0-2.5-0.9-4.2-3.1-4.2
						c-1.7,0-2.7,1.1-3.2,2.3c-0.2,0.4-0.2,0.9-0.2,1.5v9.9c0,0.3-0.2,0.5-0.5,0.5H26c-0.3,0-0.5-0.2-0.5-0.5c0-2.5,0.1-14.7,0-17.6
						c0-0.3,0.2-0.5,0.5-0.5h5.2c0.3,0,0.5,0.2,0.5,0.5V26c0,0,0,0,0,0.1h0V26c0.8-1.3,2.3-3.1,5.6-3.1C41.3,23,44.3,25.6,44.3,31.3
						L44.3,31.3z M16.4,41.9h5.3c0.3,0,0.5-0.2,0.5-0.5V23.9c0-0.3-0.2-0.5-0.5-0.5h-5.3c-0.3,0-0.5,0.2-0.5,0.5v17.6
						C15.9,41.7,16.1,41.9,16.4,41.9z"/>
				</g>
			</g>
		</g>
		<g>
			<circle class="st1" cx="18.8" cy="17.7" r="3.3"/>
		</g>
	</g>
</g>
</svg>
