<?xml version="1.0" encoding="utf-8"?>
<!-- Generator: Adobe Illustrator 21.0.0, SVG Export Plug-In . SVG Version: 6.00 Build 0)  -->
<svg version="1.1" id="Layer_1" xmlns="http://www.w3.org/2000/svg" xmlns:xlink="http://www.w3.org/1999/xlink" x="0px" y="0px"
	 viewBox="0 0 275.4 356.9" style="enable-background:new 0 0 275.4 356.9;" xml:space="preserve">
<style type="text/css">
	.st0{fill:#FFFFFF;}
	.st1{fill:#E30038;}
</style>
<g id="Layer_2">
	<rect width="275.4" height="356.9"/>
</g>
<path class="st0" d="M221.4,195.8c-1.2,0-2.5,0.3-2.4-1.5c0.2-3.7,0.1-7.3,0-11c0-2.3-1-3.3-3.1-3.3c-1.9,0-2.8,1.1-2.8,3.3
	c0,7.5-0.1,15,0,22.5c0,1.7-0.6,2.1-2.5,2c-9.3-0.1-18.6,0-27.9,0c-9.5,0-19,0-28.5,0c-1.7,0-2.1-0.4-2.1-1.8
	c0.1-10.1,0-20.2,0-30.2c0-3.2-0.9-4-4.7-4c-3.6,0-7.2,0-10.8,0c-1.2,0-1.6-0.3-1.6-1.3c-0.1-3.3-0.1-3.3,3.7-3.7
	c3.7-0.4,5.7-2.2,5.8-5.3c0.1-2,0.1-4.1,0-6.1c0-1,0.2-1.4,1.5-1.4c8.2,0,16.3,0,24.5,0c0.9,0,1.3,0.2,1.6,1c2.1,5.5,6.6,8.5,13.3,9
	c6,0.5,11.3-2.6,14.2-7.9c0.2-0.4,0.2-0.9,0.8-0.9c0.6,0,1,0.4,1.2,0.9c0.9,2.1,2.6,3.5,5,4.3c0.9,0.3,1.1,0.9,1.4,1.5
	c1.8,3.6,6.2,5.2,10.5,3.7c1.5-0.5,1.9-0.2,2.5,0.9c1.6,3.4,2.5,7,2.6,10.6c0.1,5.8,0,11.5,0.1,17.3
	C223.6,196,222.6,195.8,221.4,195.8 M229.5,178.6c-0.1-5.6-1.2-11.1-4.4-16.1c-0.6-0.9-0.5-1.6,0.1-2.4c2.1-2.8,1.8-5.7-1-8.1
	c-3.2-2.8-6.4-5.6-9.7-8.3c-1.5-1.2-1.5-1.9,0-3c4.6-3.6,8.7-9.1,11-14.2c0.1-0.3-0.3-0.5-0.5-0.3c-1.6,1.6-3.5,2.9-6.2,2
	c-0.2-0.1-0.4,0-0.4,0.2c-3.5,8.8-16,16.3-29.6,17.1c-15.7,0.9-29.9-6.9-35.7-19c-0.1-0.2-0.3-0.2-0.5-0.1c-1.3,0.8-3,1.2-5.3-0.4
	c-0.3-0.2-0.6,0-0.5,0.3c1,2.5,2.6,5.6,4.1,7.6c0.2,0.3,0.5,0.6,0.5,1c0,0.2-0.1,0.3-0.3,0.3h-38.5c-0.3,0-0.4-0.3-0.3-0.4
	c1.2-1.5,2.3-2.8,3.4-4.2c1.7-2.2,3.7-5.7,4.8-8.4c0.1-0.3-0.3-0.5-0.5-0.3c-2.3,1.6-4,1.4-5.6,1.1c-0.2,0-0.3,0-0.4,0.2
	c-5.5,12.9-19.7,19.8-36,18.8c-13.9-0.9-26.9-8.1-31.7-19.5c-0.1-0.1-0.2-0.2-0.4-0.2c-1.6,0.2-2.6,0.4-5.1-0.8
	c-0.3-0.1-0.6,0.1-0.5,0.3c2.1,5.6,6.7,11.5,11.9,15.4c1,0.8,0.7,1.4-0.2,2c-4.8,3.4-8.9,7.3-13.3,11c-3.5,3-3.8,7.1,0.2,10.1
	c1.2,0.9,1.5,1.9,1.1,3c-0.9,2.5-1,5.1-1,7.6c-0.1,12.1-0.1,31.3-0.1,43.3c0,2.3,3.5,5.1,3.5,5.1c2.7,0.5,5.5,0.3,8.3,0.3
	c20.2,0,40.4,0,60.6,0c1.8,0,3.6-7.1,5.5-7.1c0,0,0,0,0.1,0c1.9-0.3,3.1-1.6,4.6-2.5c0,0,0.1-0.1,0.1-0.1c0.7-1.3,0.5-2.6,0.5-3.9
	c0-2.3,0-9.1,0-10.6c0-0.2-0.2-0.3-0.3-0.3c-1.3,0.1-5.9,0.5-5.9,3.1c-0.1,2.2,0,4.4,0,6.7c0,2.2-0.2,2.4-2.8,2.4
	c-18,0-35.9,0-53.9,0c-2.8,0-2.9-0.2-3-2.6c0-6.8,0-13.6,0-20.3c0-0.8,0-1.6-0.1-2.3c-0.3-1.5-1.3-2.5-2.9-2.7
	c-1.7-0.2-3.1,0.6-3.8,2.1c-0.4,0.8-0.4,1.6-0.4,2.5c0,3.2,0,6.4,0,9.5c0,0.7,0,1.4-1.1,1.5c-0.7,0.1-1.5,0.2-1.9-0.4
	c-0.5-0.6-0.3-1.3-0.3-1.9c0-7.7,0-15.4,0-23c0-0.8,0.1-1.7,0.2-2.5c0.1-1.3,0.8-2,2.6-2c2.1-0.1,4.1-1,5.2-2.6
	c2.2-3.2,6.6-4.4,8.5-7.8c0.5-0.9,2.1-1.6,3.4-1.6c1.2,0,1.2,1.3,1.7,2.1c5.5,8.2,19.1,8.9,25.6,1.3c2.4-2.8,3.1-6,3-9.4
	c0-1.3,0.4-2.3,1.8-2.8c1.8-0.7,3.7-1.4,5.3-2.4c1.3-0.8,2.7-1.2,4.3-1.2c9.3,0,18.6,0,27.9,0c2.3,0,2.5,0.2,2.5,2.2
	c0,5.2,0,10.4,0,15.7c0,2.2-0.2,2.3-2.8,2.3c-4.8,0-9.6-0.1-14.4,0c-3.4,0.1-4.8,1.3-4.8,4.1c0,6.7-0.1,13.3,0,20
	c0,2.9,4.7,2.9,6,2.9c0.2,0,0.3-0.1,0.3-0.3v-21.8c0-0.2,0.1-0.3,0.3-0.3l8.6-0.1c0.2,0,0.3,0.1,0.3,0.3v10.8c0,0.2,0.1,0.3,0.3,0.3
	c1.8,0,13.2,0,13.2,0s0,23.5,0,30.6c0,2.8,2.7,4.3,5.8,5.3c0,0,0.1,0,0.1,0c22.3,0,44.6,0,66.9,0c2.8,0,5.6,0.2,8.3-0.3
	c0,0,0.1,0,0.1,0c2.6-1.4,3.4-3.4,3.4-6C229.5,197.1,229.6,187.9,229.5,178.6"/>
<path class="st0" d="M76.6,57.5c0.6-6.1,13.7-11.2,18.4-12.6c-11.2-6.7-44.6,3.9-58.2-4.8c20.6,5.5,55.4-9,73.2,7.8
	C91.8,46.4,78.5,55.1,76.6,57.5 M130.9,54.2c-1.8-4.5-5.3-8.5-10.4-11.8c0,0,0,0,0,0c-10.3-5.3-19.7-7.8-30.2-8.6
	c-8.5-0.6-14.6-0.1-14.6-0.1l0,0c-1.1,0-2.1,0.1-3.2,0.1c-0.2,0-0.4,0-0.6,0c-4.8,0.3-9.9,0.7-15.2,1.5c-26.6,3.6-33.9-3-35.5-8.6
	c-4.7,3.7-7.7,9.6-3.2,18.8c7.7,13.9,19,15,23,15.4c-6.8,1.5-14.8-1.8-18-4l-1.4-1.1c0,0,0,0,0,0c-0.4,0.6-0.6,1.2-0.8,1.8
	c-2.9,8,1.5,14.7,11,18.2c2.6,5,3.4,13.5,3.6,16.2l6.7-0.7l2.5-13c1.2-0.1,2.4-0.2,3.5-0.4c7.1-1,13.3-3.3,14.9-3.9
	c0.1,0,0.1-0.1,0.2-0.1c7.2-3,16-6.5,27.1-6.5c6.1,0,11.1,1,14.9,2.9c-2.2-0.4-4.2-0.6-6.2-0.6c-9.6,0-16.8,4.8-21.7,10.4
	c15.5-5.2,36.9-5.6,39.1,6.1c0.3,1.7,0.4,3.6,0.4,5.4c2.1,0.4,4.4,0.8,5.5,1.3C122.3,92.8,137.1,69.2,130.9,54.2"/>
<path class="st0" d="M122.6,108.8c0,2.2-2.2,6.5-8.2,7.6c-0.8,0.1-1.6,0.2-2.4,0.2c0,0,0,0-0.1,0c-0.3,0-0.5,0-0.8,0.1
	c-2,0.1-4.1,0.2-6.3,0.2c-3.2-0.1-6.5-0.4-9.5-1.7c0,0,0,0-0.1,0c-5.1-2.4-5.9-6.7-5.9-10.4c0-3.8,3.6-7,10-7h14.5
	c4.8,0,8.8,1.5,8.8,5.1V108.8z M66.7,115.2C66.7,115.2,66.7,115.2,66.7,115.2c-3.1,1.3-6.4,1.6-9.6,1.7c-2.1,0-4.3,0-6.3-0.2
	c-0.3,0-0.5,0-0.8-0.1c0,0,0,0-0.1,0c-0.8-0.1-1.6-0.1-2.4-0.2c-6-1-8.2-5.4-8.2-7.6v-5.9c0-3.6,4-5.1,8.8-5.1h14.5
	c6.4,0,10,3.2,10,7C72.7,108.5,71.8,112.7,66.7,115.2 M131.7,94.8c-1.8,0.2-15.6-4.4-37.2-0.7c-0.2,0-0.4,0.1-0.6,0.1
	c-0.2,0-0.5,0.1-0.7,0.1l0,0c-2.4,0.5-4.4,1.5-5.8,2.8v0c-1.5,1.1-3.9,1.6-6.3,1.6c-2.4,0-4.8-0.5-6.3-1.6v0
	c-1.5-1.3-3.4-2.3-5.8-2.8l0,0c-0.2,0-0.5-0.1-0.7-0.1c-0.2,0-0.4-0.1-0.6-0.1c-21.6-3.7-35.4,0.9-37.2,0.7
	c-0.4-0.1-0.7,0.3-0.9,0.9v0c0.2,4.1,0.7,4,5,5.6v7.6c0,3,2.9,9,10.7,10.4c1,0.1,2,0.2,3.1,0.3c0,0,0,0,0.1,0c0.3,0,0.7,0.1,1.1,0.1
	c2.6,0.2,5.4,0.3,8.1,0.2c4.1-0.1,8.4-0.5,12.3-2.3c0,0,0.1,0,0.1,0c4.8-2.4,6.7-6.2,7.4-10v0c0.3-1.5,1.8-3.1,3.6-3.2
	c0,0,0.1,0,0.1,0c0,0,0.1,0,0.1,0c1.8,0.1,3.3,1.7,3.6,3.2v0c0.7,3.8,2.5,7.6,7.4,10c0,0,0.1,0,0.1,0c3.9,1.8,8.2,2.1,12.3,2.3
	c2.7,0,5.5,0,8.1-0.2c0.4,0,0.7,0,1.1-0.1c0,0,0,0,0.1,0c1.1-0.1,2.1-0.2,3.1-0.3c7.8-1.4,10.7-7.4,10.7-10.4v-7.6
	c4.3-1.6,4.8-1.5,5-5.6v0C132.4,95.1,132.1,94.8,131.7,94.8"/>
<path class="st0" d="M227.9,90.2c-1.3-0.6-2.5-1.4-3.6-2.3l0,0c-3.2-2.8-7.1-8.8-9.2-13c0,0,0-0.1-0.1-0.1c-2.7-6-4.8-12-4.5-15.6
	c-3,7.7-10.4,12.8-21,13.6c0.7-7.7-5.5-15.1-5.5-15.1c-8.8,12.6-21.9,18.7-21.9,18.7c-4.2-2-8.3-10.6-8.3-10.6
	c-0.8,5.7-1.3,10.5-2.6,15c-1.3,4-6.4,8.1-9.8,10.4c-0.1-0.2-0.2-0.4-0.3-0.7c-4.9-9.9-4.5-20.1-3.9-25.2c1.2,2.2,3.2,5.4,5.4,6.7
	c-0.2-0.2-2.9-3.6-4.9-9.9c-2.1-13.4,6-21.6,6-21.6c4.2,1.2,5.8,4.7,5.8,4.7c0.5-8.7,5.4-15.7,11.3-20.1c-3.4,6.1-5.3,13.1-4.5,16.1
	c0,0,0.6-12.6,11.7-20.2c0.1-0.1,0.3-0.1,0.5-0.2c3,0.6,7.4,4.5,7.4,4.5c2.9-3.4,8.1-7.3,13.1-10.2c-3.7,4.6-5.8,10.7-5.8,12.9
	c0,0,3.9-10.8,10.8-15.4c1.1-0.5,2.1-0.8,3-1.1c8.1,2,12.7,19.1,12.7,21c5.1-5.1,9.9-4.5,9.9-4.5c1.9,1.3,5.8,14.9,4,20.9
	c2.2-3.6,1.9-11.5,0.7-16.8c7.2,9.4,4.5,25.8,4.5,25.8c-1,6.9-2.3,9.8-2.4,10c2.2-1.5,3.6-4,4.5-6.2C232.7,68,232.8,80.3,227.9,90.2
	"/>
<path class="st0" d="M224.5,108.8c0,2.2-2.1,6.7-7.9,7.8c-0.7,0.1-1.5,0.2-2.3,0.2c0,0,0,0-0.1,0c-0.3,0-0.5,0-0.8,0.1
	c-1.9,0.1-4,0.2-6,0.2c-3-0.1-6.2-0.4-9.1-1.7c0,0,0,0-0.1,0c-4.9-2.5-5.7-6.9-5.7-10.7c0-3.9,3.5-7.2,9.6-7.2h13.9
	c4.6,0,8.4,1.6,8.4,5.2V108.8z M170.9,115.3C170.9,115.3,170.9,115.3,170.9,115.3c-3,1.4-6.2,1.6-9.2,1.7c-2,0-4.1,0-6-0.2
	c-0.3,0-0.5,0-0.8-0.1c0,0,0,0-0.1,0c-0.8-0.1-1.6-0.1-2.3-0.2c-5.7-1.1-7.9-5.6-7.9-7.8v-6c0-3.7,3.8-5.2,8.4-5.2H167
	c6.1,0,9.6,3.2,9.6,7.2C176.6,108.4,175.8,112.8,170.9,115.3 M233.3,94.4c-1.7,0.2-15-4.5-35.7-0.7c-0.2,0-0.4,0.1-0.6,0.1
	c-0.2,0-0.4,0.1-0.7,0.1l0,0c-2.3,0.5-4.2,1.5-5.6,2.9v0c-1.5,1.1-3.8,1.6-6.1,1.6c-2.3,0-4.6-0.5-6.1-1.6v0
	c-1.4-1.3-3.3-2.3-5.6-2.9l0,0c-0.2,0-0.5-0.1-0.7-0.1c-0.2,0-0.4-0.1-0.6-0.1c-20.7-3.8-34,0.9-35.7,0.7c-0.4-0.1-0.7,0.3-0.8,1v0
	c0.2,4.2,0.7,4.1,4.8,5.7v7.8c0,3.1,2.8,9.2,10.2,10.7c0.9,0.1,2,0.2,3,0.3c0,0,0,0,0.1,0c0.3,0,0.7,0.1,1,0.1
	c2.5,0.2,5.2,0.3,7.8,0.2c3.9-0.1,8.1-0.5,11.8-2.3c0,0,0.1,0,0.1,0c4.6-2.5,6.4-6.3,7.1-10.3v0c0.3-1.5,1.7-3.2,3.5-3.2
	c0,0,0.1,0,0.1,0c0,0,0.1,0,0.1,0c1.7,0.1,3.2,1.7,3.5,3.2v0c0.6,3.9,2.4,7.8,7.1,10.3c0,0,0.1,0,0.1,0c3.8,1.8,7.9,2.2,11.8,2.3
	c2.6,0,5.3,0,7.8-0.2c0.3,0,0.7,0,1-0.1c0,0,0,0,0.1,0c1-0.1,2-0.2,3-0.3c7.4-1.5,10.2-7.6,10.2-10.7v-7.8c4.2-1.7,4.6-1.5,4.8-5.7
	v0C233.9,94.7,233.7,94.3,233.3,94.4"/>
<path d="M85.6,147c-0.6,0.1-1.1,0.1-1.7,0.2c-3.8-0.1-7.6,0.1-11.4-0.4c-0.4,1-0.3,2-0.1,3c0.4,3.8,3.9,6.4,8.5,6.3
	c4.3-0.1,7.7-2.8,8.1-6.4C89.4,146.5,89.4,146.5,85.6,147"/>
<path class="st1" d="M182.8,218.4c0,0-48.3,19.7-57.8,19.8c-1.7,0,10.1-66.7,10-67.8c-0.1-3.3-0.1-3.3,3.7-3.7
	c3.7-0.4,5.7-2.2,5.8-5.3c0.1-2,0.1-4.1,0-6.1c0-1,0.2-1.4,1.5-1.4c8.2,0,16.3,0,24.5,0c0.9,0,1.3,0.2,1.6,1c2.1,5.5,6.6,8.5,13.3,9
	c6,0.5,11.3-2.6,14.2-7.9c0.2-0.4,0.2-0.9,0.8-0.9c0.6,0,1,0.4,1.2,0.9c0.9,2.1,2.6,3.5,5,4.3c0.9,0.3,1.1,0.9,1.4,1.5
	c1.8,3.6,6.2,5.2,10.5,3.7c1.5-0.5,2-0.2,2.5,0.9c1.6,3.4,2.5,7,2.6,10.6c0.1,5.8,0.1,41.4,0.1,41.4H182.8z"/>
<path d="M61.8,147.3c-0.5,2.4-3.1,1-4.7,2c-1.8,1.1-0.7,3-1.9,4.2c-1.4,1.3-3.7,0.4-5.1,1.6c-1.7,1.4-0.1,4.2-3.1,4.7
	c-1.5,0.2-6.1-4.7-6.1-4.7l14.7-12.6C55.6,142.4,60.2,145.3,61.8,147.3"/>
<path d="M217.2,161.3c-2.8-0.4-1.1-2.6-2.3-4c-1.3-1.5-3.5-0.6-4.9-1.6c-1.5-1.2-0.5-3.2-1.8-4.3c-1.7-1.4-5-0.1-5.5-2.6
	c-0.3-1.3,5.5-5.2,5.5-5.2l14.8,12.5C222.9,156,219.5,160,217.2,161.3"/>
<path d="M164.3,145.5c-2-1.2-4-2.5-5.9-3.7c0-0.1-0.1-0.1-0.1-0.2c-2-1.9-4.6-1.2-7-1.3c-6.8-0.5-7,0-6.4,5.8
	c-0.3,2.6-0.3,2.6,2.6,2.6c1,0,2,0,2.9-0.1h20.3C168.5,147.5,166.3,146.6,164.3,145.5"/>
<path d="M194.5,151.2c-0.1-0.9-0.4-1-1.3-0.8c-1.6,0.2-3.2,0.3-4.8,0.5c-1.8,0-3.7,0-5.5,0c-1.4-0.2-2.8-0.3-4.1-0.5
	c-1-0.2-1.3,0.1-1.2,0.9c0.2,1.7,0.3,3.4,1.9,4.7c1.6,2,4,2.9,6.8,2.8C191.1,158.6,194.8,155.2,194.5,151.2"/>
<path d="M121.1,195.3c0,0-4.6,0.5-4.6,3.6c0,2.3-0.1,4.6,0,6.8c0.1,1.6-0.4,25.3-2.4,25.3c-12.8-0.1-38.3,0-38.3,0l-18.2,0H45
	c0,0,0.1-53.9,0.1-62.6c0-0.3,0.1-0.6,0.1-0.9c-0.1-2,0.6-3,3.4-3c2.9,0,4.9-1.7,6-3.9c0.5-0.9,1-1.5,2.1-1.8c2-0.6,3.5-1.9,4.2-3.6
	c0.9-2.1,3.6-2.1,5.2-3.3c0.7-0.5,0.8,0.8,1,1.2c1.9,4.3,5.5,6.9,10.6,7.9c8.9,1.7,17.7-4.1,17.5-11.9c-0.1-3.4,0.8-5.4,4.8-6.2
	c0.1,0,0.1-0.1,0.2-0.1c3.5-2.8,7.9-2.6,12.3-2.6c8,0.1,16.1,0.1,24.1,0c1.6,0,2.2,0.2,2.2,1.8c-0.1,6-0.1,12,0,18
	c0,1.3-0.4,1.6-1.9,1.6c-5.4-0.1-10.7,0-16.1,0c-3.1,0-4.2,0.9-4.2,3.5c0,6.6,0,13.2,0,19.8c0,3.1,4.6,3,4.6,3V195.3z"/>
<path class="st0" d="M266.5,212.9C266.5,212.9,266.5,212.9,266.5,212.9c-1.4-3.3-4.2-5.4-7.3-5.6c-2.2-0.1-4.2,0.7-5.9,2.2
	c0.7-6.2,0.8-11.7-1.1-15.9c-2.3-5.2-7.7-8.6-14-8.8c-3.9-0.1-6.7,0.4-9.7,1.9c-3.1,1.5-5.3,4.3-8,9.1c-2.7-3.6-6.2-4.9-9.2-5.6
	c-4.2-1-8.5-0.6-12.2,1.2c-3.8,1.9-7.6,6.2-12.1,14c-0.5-0.2-1-0.3-1.5-0.4c-2.8-0.7-11.4-3-17,3.4c-2.2,2.5-4.3,7.5-6,13.1
	c-1.5-1.7-3.3-3.2-5.4-4.4c-2.3-1.4-4.8-2.2-7.3-2.6c2.2-3.7,4.3-7.6,6-11.6c2.5-5.8,4.3-10.9,5.5-15.8c2-8.3,1.6-15.4-1-21
	c-3.3-7-10.5-10.3-17.9-8.2c-3.3,0.9-6.4,2.7-9.9,5.5c-3.7,3-7.1,6.6-10,10.6c-8.8,12.1-15.5,26.8-20.1,43.7
	c-0.4,1.6-0.8,3.1-1.2,4.7c-2.8-2.8-6.8-4.5-11.1-4.6c-3.9-0.1-6.7,0.4-9.7,1.9c-3.1,1.5-5.3,4.3-8,9.1c-2.7-3.6-6.2-4.9-9.2-5.6
	c-4.2-1-8.5-0.6-12.2,1.2c-3.8,1.9-7.6,6.2-12.1,14c-0.5-0.2-1-0.3-1.5-0.4c-2.8-0.7-8.9-3-14.5,3.4c-4.8,5.3-10.3,27.7-10.6,52
	c-0.1,7.8,4.3,14,12.7,15.2c1,0.2,2.1,0.2,3.1,0.2c6.7,0,11.3-3.1,15.4-9.7c2.4,2.1,5.5,3.3,9,3.5c8.4,0.4,18.6-5.2,21.4-14.4
	c1,0.8,2.2,1.5,3.3,2.1c6.1,3.1,13.2,3.1,19.6,0c3.8-1.9,7.5-5.3,11.2-10.5c5.8,4.6,13.5,6.5,22.1,5.3c11.1-1.5,21-7.8,28-17.8
	c2.2,4.4,6.7,7.6,12.5,8.5c7.6,1.1,16.2-1.9,21-9.5c2.4,2.1,5.5,3.3,9,3.5c8.4,0.4,18.7-5.2,21.4-14.4c1,0.8,2.1,1.5,3.3,2.1
	c6.1,3.1,13.2,3.1,19.6,0c7.5-3.7,14.6-13.6,22.1-31.1c0-0.1,0.1-0.1,0.1-0.2C268.8,222,268.5,217.6,266.5,212.9"/>
<path d="M144.7,234.7c-2.1,0.2-5.1,0.1-6.4-2.1c-0.8-1.4-0.4-3.1,0.5-4.4c0.9-1.3,2.3-2.2,3.9-1.8
	C146.1,227.1,145.7,232,144.7,234.7 M139.4,179.8c0.9-2.3,1.6-4.6,3-6.6c0.5-0.8,1.6-2.4,2.7-2c1,0.4,1,2,1,2.9
	c0,2.1-0.7,4.1-1.2,6.1c-0.7,2.5-1.6,4.9-2.6,7.3c-1.9,4.7-4.1,9.3-6.6,13.7c-2.7,4.7-5.6,9.1-8.9,13.3
	C138.8,181.1,139.4,179.8,139.4,179.8 M256,212c-0.5-1.1-1.2-1.4-1.8-0.3c-5.7,10.4-11.4,15.9-14.3,17.3c-0.5,0.2-0.8,0.4-1.1,0.4
	c0.4-10.9,6.1-29.6,3.1-36.4c-0.9-2.1-3.6-4.1-7.3-4.2c-2.6-0.1-4.3,0.2-6.3,1.2c-3.3,1.6-6.5,9.4-14.1,24.8
	c0.5-6.3,0-12.5-1.6-16.2c-1.3-3-3.2-4-6.1-4.8c-2.9-0.7-5.4-0.2-7.3,0.6c-2.9,1.4-7,6.7-12.8,18.6c-0.8-2.7-2.2-3.8-5.5-4.7
	c-4.5-1.2-7.7-1.1-9.7,1.1c-1.5,1.7-4.5,9.2-6.8,19.9c-2,1.1-3.9,1.6-6.1,1.1c-1.4-9.7-11.3-15.6-19.8-11.6c-6.2,2.9-10.5,11-7.5,18
	c1.7,4.1,5.8,6,9.9,6.4c-0.8,3-2.1,5.9-3.7,8.5c-2.3,3.8-6.4,8.9-11.1,8.7c-3.3-0.1-4.9-3.1-5.5-6.2c-0.8-4.4-0.1-9,0.7-13.4
	c0.8-4.2,1.9-8.3,3.1-12.4c8.5-10.1,17-20.7,22.3-33.1c2-4.5,3.8-9.4,4.9-14.2c1.2-4.8,1.7-10.7-0.5-15.3c-1.8-3.8-5.4-5.1-9.2-4.1
	c-2.7,0.8-5.1,2.4-7.2,4.1c-3.2,2.6-6.1,5.7-8.5,9c-8.7,12-14.7,26-18.6,40.5c-2.6,9.5-4.4,19.3-5,29.2c-0.2,2.4,0,4.9,0.2,7.2
	c-3.9,5.4-7.3,8.5-9.3,9.5c-0.5,0.2-0.8,0.4-1.1,0.4c0.4-10.9,6.1-29.6,3.1-36.4c-0.9-2.1-3.6-4.1-7.3-4.2c-2.6-0.1-4.3,0.2-6.3,1.2
	c-3.3,1.6-6.5,9.4-14.1,24.8c0.5-6.3,0-12.5-1.6-16.2c-1.3-3-3.2-4-6.1-4.8c-2.9-0.7-5.4-0.2-7.3,0.6c-2.9,1.4-7,6.7-12.8,18.6
	c-0.8-2.7-2.2-3.8-5.5-4.7c-4.5-1.2-7.7-1.1-9.7,1.1c-2.6,2.9-9.4,22.2-9.7,46c-0.1,9.6,19.3,10.8,22.8-2.9
	c3-11.9,4.7-20.6,11.2-34.9c-3.3,18-5.1,27.4-4.3,33c1.4,10.6,18.7,5.6,20.7-3.3c3-14.9,3.6-19.2,6.3-25.1
	c-0.6,5.3-0.3,11.2,0.6,15.2c1.7,7.2,10.8,12,19.4,7.7c4.9-2.4,9.5-9.1,13.3-16.4c0.2,0.5,0.4,1,0.6,1.4c4.5,8,12.8,10.4,21,9.2
	c10.1-1.4,18.6-7.7,24.2-16.6c1.3-2.1,2.4-4.2,3.4-6.4c1.2-2.7,2.5-5.6,3-8.6c1.7-0.5,3.5-1.1,5.3-1.9c-0.8,5.3-1.3,11.2-1.4,17.3
	c-0.1,9.6,19.3,10.8,22.8-2.9c3-11.9,4.7-20.6,11.2-34.9c-3.3,18-5.1,27.4-4.3,33c1.4,10.6,18.7,5.6,20.7-3.3
	c3-14.9,3.6-19.2,6.3-25.1c-0.6,5.3-0.3,11.2,0.6,15.2c1.7,7.2,10.8,12,19.4,7.7c7.3-3.6,13.9-16.7,18.3-26.8
	C257.5,216.3,256.8,213.9,256,212"/>
<path class="st1" d="M53,323.2c-0.2,1.1-0.4,2.2-0.8,3c-0.4,0.9-0.8,1.6-1.3,2.2c-0.5,0.6-1,1.1-1.6,1.4c-0.6,0.4-1.2,0.6-1.8,0.7
	c-0.8,0.2-1.3,0.2-1.5,0.2l0.8-6.3c0.1-0.9,0.3-1.7,0.7-2.3c0.3-0.6,0.7-1.2,1.1-1.6c0.4-0.4,0.8-0.8,1.3-1c0.5-0.2,0.9-0.4,1.2-0.5
	c1.3-0.3,1.6,0.2,1.7,0.3C53,320,53.3,321,53,323.2 M45.5,320.7L45.5,320.7C45.5,320.6,45.5,320.6,45.5,320.7
	C45.5,320.7,45.5,320.7,45.5,320.7 M57.5,318.9c-0.2-1.2-0.6-2.2-1.2-2.9c-0.6-0.8-1.4-1.3-2.4-1.5c-0.9-0.2-1.9-0.2-2.9,0.1
	c-1.4,0.3-2.6,0.9-3.6,1.7c-0.1,0-0.1,0.1-0.2,0.1c0,0,0,0,0,0c-0.2-0.3-0.6-0.4-0.9-0.4c-0.1,0-0.3,0-0.6,0.1
	c-0.2,0-0.4,0.1-0.5,0.1c-0.1,0-0.3,0.1-0.5,0.1c-0.2,0.1-0.4,0.1-0.6,0.2c-0.4,0.2-0.7,0.6-0.8,1l-3.3,24.5c-0.1,0.4,0.1,0.8,0.3,1
	c0.2,0.3,0.6,0.4,0.9,0.4c0,0,0,0,0,0c0.1,0,0.4,0,0.6-0.1c0.2,0,0.4-0.1,0.5-0.1c0.1,0,0.3-0.1,0.5-0.1c0.3-0.1,0.5-0.1,0.6-0.2
	c0.4-0.2,0.7-0.6,0.8-1l0.9-6.7c0.1,0,0.3,0,0.4,0c0.6,0,1.1-0.1,1.7-0.2c1.4-0.3,2.6-0.8,3.8-1.5c1.1-0.7,2.1-1.6,3-2.7
	c0.8-1,1.6-2.3,2.1-3.6c0.5-1.3,0.9-2.8,1.1-4.3C57.7,321.3,57.7,320,57.5,318.9"/>
<path class="st1" d="M29.4,320.9c-0.2-0.3-0.5-0.5-0.8-0.6c-0.5-0.1-1.1-0.2-1.8-0.2c-0.8,0-1.6,0.1-2.4,0.3c-2,0.5-3.6,1.3-4.7,2.5
	c-1.2,1.2-1.9,2.7-2.1,4.3c-0.1,1-0.1,1.7,0.2,2.4c0.2,0.7,0.6,1.2,1.1,1.6c0.5,0.4,1,0.6,1.6,0.8c0.5,0.1,1,0.2,1.4,0.3
	c0.4,0.1,0.8,0.2,1.2,0.2c0.3,0,0.5,0.1,0.6,0.2c0.1,0.1,0.1,0.1,0.2,0.2c0,0,0.1,0.2,0,0.7c-0.1,0.6-0.4,1.1-0.9,1.6
	c-0.6,0.6-1.3,1-2.3,1.2c-0.5,0.1-1.1,0.2-1.7,0.2c-0.7,0-1.1-0.1-1.3-0.1c-0.6-0.1-1.1,0.1-1.4,0.7c-0.4,0.8-0.7,1.5-0.9,2.3
	c-0.1,0.3-0.1,0.7,0.1,1c0.2,0.3,0.4,0.5,0.8,0.6c0.4,0.1,1,0.2,1.6,0.2c0.1,0,0.3,0,0.4,0c0.8,0,1.7-0.2,2.6-0.4
	c0.9-0.2,1.8-0.5,2.6-1c0.8-0.4,1.6-1,2.2-1.6c0.7-0.7,1.2-1.4,1.6-2.2c0.4-0.8,0.7-1.7,0.8-2.7c0.1-1.1,0.1-2-0.2-2.7
	c-0.3-0.7-0.7-1.3-1.3-1.7c-0.5-0.4-1.1-0.6-1.8-0.8c-0.5-0.1-1-0.2-1.6-0.3c-0.3,0-0.7-0.1-1-0.2c-0.2,0-0.4-0.1-0.6-0.2
	c0,0,0-0.1,0-0.3c0.1-0.5,0.3-0.9,0.6-1.3c0.4-0.4,1.1-0.7,2-0.9c0.6-0.1,1.1-0.2,1.6-0.2c0.5,0,1,0,1.3,0.1
	c0.6,0.1,1.1-0.2,1.3-0.8c0.3-0.7,0.5-1.4,0.7-2.1C29.6,321.6,29.6,321.2,29.4,320.9"/>
<path class="st1" d="M80.1,317.8c-0.3,1.9-0.8,3.5-1.6,4.7c-0.7,1.1-1.7,1.8-2.9,2.1c-1.4,0.3-1.8-0.2-1.9-0.5
	c-0.3-0.5-0.6-1.7-0.3-3.9c0.3-1.9,0.8-3.5,1.6-4.7c0.7-1.1,1.7-1.8,2.9-2.1c1.4-0.3,1.8,0.2,1.9,0.5
	C80.1,314.4,80.4,315.6,80.1,317.8 M84.6,314c-0.2-1.2-0.5-2.2-1.1-3.1c-0.6-0.9-1.4-1.5-2.4-1.9c-1-0.3-2.1-0.4-3.4-0.1
	c-1.2,0.3-2.4,0.8-3.4,1.5c-1,0.7-1.9,1.6-2.6,2.6c-0.7,1-1.3,2.1-1.8,3.4c-0.4,1.2-0.8,2.5-0.9,3.8c-0.2,1.3-0.2,2.6-0.1,3.7
	c0.1,1.2,0.5,2.3,1.1,3.1c0.6,0.9,1.4,1.5,2.4,1.9c0.5,0.2,1.1,0.3,1.7,0.3c0.5,0,1.1-0.1,1.7-0.2c1.2-0.3,2.4-0.8,3.4-1.5
	c1-0.7,1.9-1.6,2.6-2.6c0.7-1,1.3-2.1,1.8-3.4c0.5-1.2,0.8-2.5,1-3.8C84.7,316.4,84.8,315.2,84.6,314"/>
<path class="st1" d="M106.5,303.6c-0.2-0.2-0.6-0.4-0.9-0.3c-0.2,0-0.4,0-0.6,0.1l-0.2,0c-1.2,0.3-2.3,0.8-3.2,1.6
	c0-0.1-0.1-0.1-0.2-0.2c-0.3-0.3-0.6-0.4-0.9-0.4c-0.2,0-0.3,0-0.5,0.1c-0.2,0-0.3,0.1-0.5,0.1c-0.2,0-0.3,0.1-0.5,0.1
	c-0.2,0-0.3,0.1-0.5,0.2c-0.4,0.2-0.8,0.6-0.8,1.1l-2.3,16.8c-0.1,0.4,0.1,0.8,0.3,1c0.2,0.3,0.6,0.4,0.9,0.4c0,0,0,0,0,0
	c0.2,0,0.4,0,0.6-0.1c0.2,0,0.4-0.1,0.5-0.1c0.1,0,0.3-0.1,0.5-0.1c0.3-0.1,0.5-0.1,0.6-0.2c0.4-0.2,0.7-0.6,0.8-1l1.2-8.6
	c0.3-1.9,0.8-3.4,1.5-4.3c0.7-0.9,1.6-1.5,2.7-1.7l0.3-0.1c0,0,0.1,0,0.2,0c0.5,0,0.9-0.4,1.1-0.9c0.1-0.4,0.2-0.8,0.3-1.2
	c0.1-0.4,0.1-0.8,0.1-1.2C106.9,304.2,106.8,303.8,106.5,303.6"/>
<path class="st1" d="M128.8,298.4c-0.3-0.2-0.7-0.3-1-0.2l-2.3,0.5l0.4-3.3c0.1-0.4-0.1-0.8-0.4-1.1c-0.3-0.3-0.8-0.4-1.1-0.3
	c-0.3,0.1-0.5,0.2-0.7,0.4l-2.1,2.4c-0.2,0.2-0.3,0.4-0.3,0.7l-0.3,2.3l-1.7,0.4c-0.4,0.1-0.8,0.4-0.9,0.9c0,0.2-0.1,0.3-0.1,0.5
	c0,0.2-0.1,0.4-0.1,0.6c0,0.2,0,0.4-0.1,0.6c0,0.2,0,0.4,0,0.6c0,0.4,0.2,0.7,0.5,1c0.3,0.2,0.7,0.3,1,0.2l0.8-0.2l-1.2,9.2
	c-0.3,2,0.1,3.4,1,4.2c0.6,0.5,1.4,0.8,2.3,0.8c0.4,0,0.8,0,1.2-0.1c1-0.2,2-0.6,2.8-1c0.4-0.2,0.6-0.6,0.7-1.1c0-0.7,0-1.4,0-2
	c0-0.4-0.3-0.8-0.7-1c-0.4-0.2-0.8-0.2-1.2,0c-0.4,0.2-0.9,0.4-1.5,0.6c-0.1,0-0.3,0.1-0.4,0.1c0-0.1,0-0.3,0-0.6l1.3-10l3.1-0.7
	c0.4-0.1,0.8-0.4,0.9-0.9c0-0.1,0.1-0.3,0.1-0.6c0-0.2,0.1-0.4,0.1-0.6c0-0.2,0-0.4,0.1-0.6c0-0.2,0-0.4,0-0.5
	C129.2,299,129.1,298.6,128.8,298.4"/>
<path class="st1" d="M152.3,293.9c-0.2-0.3-0.5-0.5-0.8-0.6c-0.5-0.1-1.1-0.1-1.8-0.2c-0.8,0-1.6,0.1-2.4,0.3
	c-2,0.4-3.6,1.3-4.8,2.5c-1.2,1.2-1.8,2.7-2.1,4.3c-0.1,1-0.1,1.7,0.2,2.4c0.2,0.7,0.6,1.2,1.1,1.6c0.5,0.4,1,0.6,1.6,0.8
	c0.5,0.1,1,0.2,1.4,0.3l1.2,0.2c0.2,0,0.5,0.1,0.6,0.2c0.1,0.1,0.1,0.1,0.2,0.2c0,0,0.1,0.2,0,0.7c-0.1,0.6-0.4,1.1-0.9,1.6
	c-0.6,0.6-1.3,1-2.3,1.2c-0.5,0.1-1.1,0.2-1.7,0.2c-0.7,0-1.1-0.1-1.3-0.1c-0.6-0.1-1.1,0.1-1.4,0.7c-0.4,0.8-0.7,1.5-0.9,2.3
	c-0.1,0.3-0.1,0.7,0.1,1c0.2,0.3,0.4,0.5,0.8,0.6c0.4,0.1,1,0.2,1.6,0.2c0.1,0,0.3,0,0.5,0c0.8,0,1.7-0.2,2.6-0.4
	c0.9-0.2,1.8-0.5,2.6-1c0.8-0.4,1.6-1,2.2-1.6c0.7-0.7,1.2-1.4,1.6-2.2c0.4-0.8,0.7-1.7,0.8-2.7c0.1-1.1,0.1-2-0.2-2.7
	c-0.3-0.7-0.7-1.3-1.3-1.7c-0.5-0.4-1.1-0.6-1.8-0.8c-0.5-0.1-1-0.2-1.6-0.3c-0.3,0-0.7-0.1-1-0.2c-0.2,0-0.4-0.1-0.6-0.2
	c0,0,0-0.1,0-0.3c0.1-0.5,0.3-0.9,0.6-1.3c0.4-0.4,1.1-0.7,2-0.9c0.6-0.1,1.1-0.2,1.6-0.2c0.6,0,1,0,1.3,0.1
	c0.6,0.1,1.1-0.2,1.3-0.8c0.3-0.7,0.5-1.4,0.7-2.1C152.5,294.6,152.4,294.2,152.3,293.9"/>
<path class="st1" d="M184.9,286.4c-0.2-0.4-0.6-0.6-1.1-0.5c-0.1,0-0.3,0-0.6,0.1c-0.2,0-0.4,0.1-0.6,0.1c-0.2,0-0.4,0.1-0.6,0.1
	c-0.2,0.1-0.4,0.1-0.5,0.2c-0.3,0.1-0.6,0.4-0.7,0.8l-3.5,9.9l-1.1-8.1c-0.1-0.6-0.6-1.1-1.1-1.1c-0.3,0-0.5,0-0.8,0.1l-0.5,0.1
	c-0.2,0.1-0.4,0.1-0.7,0.2c-0.2,0.1-0.4,0.1-0.6,0.2c-0.3,0.1-0.6,0.4-0.8,0.8l-3.7,10.1l-0.8-8.2c-0.1-0.7-0.6-1.2-1.3-1.2
	c-0.1,0-0.4,0-0.6,0.1c-0.2,0-0.4,0.1-0.6,0.1c-0.2,0-0.4,0.1-0.6,0.2c-0.2,0.1-0.4,0.1-0.6,0.2c-0.5,0.2-0.9,0.8-0.8,1.4l2,15.8
	c0.1,0.6,0.6,1.1,1.2,1.1h0c0.4,0,0.8-0.1,1.2-0.2c0.4-0.1,0.8-0.2,1.2-0.4c0.3-0.1,0.6-0.4,0.7-0.7l3.9-10.1l1.1,8.2
	c0.1,0.6,0.6,1.1,1.2,1.1h0c0.4,0,0.8-0.1,1.2-0.2c0.4-0.1,0.8-0.2,1.2-0.4c0.3-0.1,0.6-0.4,0.7-0.7l6.5-17.7
	C185.2,287.3,185.1,286.8,184.9,286.4"/>
<path class="st1" d="M200.4,288.9c0.3-0.6,0.6-1.2,1-1.7c0.7-0.9,1.6-1.4,2.6-1.7c0.3-0.1,0.5-0.1,0.7-0.1c0.2,0,0.4,0,0.4,0.1
	c0.2,0.1,0.4,0.2,0.5,0.4c0.2,0.2,0.3,0.6,0.3,1c0,0.2,0,0.5,0,0.7L200.4,288.9z M210.3,285.4c-0.2-1.1-0.5-2-1.1-2.7
	c-0.6-0.8-1.4-1.3-2.3-1.6c-0.9-0.3-1.9-0.3-3.1,0c-1.3,0.3-2.5,0.8-3.5,1.6c-1,0.7-1.9,1.6-2.6,2.7c-0.7,1-1.3,2.2-1.7,3.4
	c-0.4,1.2-0.7,2.5-0.9,3.8c-0.2,1.4-0.2,2.7-0.1,3.8c0.2,1.2,0.6,2.3,1.2,3.1c0.7,0.9,1.6,1.4,2.7,1.7c0.5,0.1,1,0.2,1.5,0.2
	c0.7,0,1.4-0.1,2.2-0.3c0.9-0.2,1.8-0.5,2.7-0.8c0.8-0.3,1.6-0.8,2.3-1.2c0.3-0.2,0.5-0.6,0.6-1c0-0.3,0-0.7,0-1.1
	c0-0.4-0.1-0.8-0.2-1.2c-0.1-0.4-0.4-0.7-0.7-0.8c-0.3-0.1-0.7-0.1-1.1,0.1c-0.6,0.3-1.2,0.7-1.8,0.9c-0.6,0.2-1.2,0.4-1.8,0.6
	c-0.9,0.2-2.2,0.3-2.7-0.3c-0.2-0.3-0.6-0.9-0.5-2.7l9.6-2.1c0.5-0.1,0.8-0.5,0.9-1c0.1-0.2,0.1-0.5,0.2-0.9
	c0.1-0.3,0.1-0.6,0.1-0.8C210.4,287.5,210.4,286.4,210.3,285.4"/>
<path class="st1" d="M229.2,290.8c-0.3,0.1-0.6,0.2-0.8,0.3c-0.5,0.2-1,0.3-1.6,0.4c-0.4,0.1-0.8,0.1-1.2,0.2c-0.3,0-0.5,0-0.7-0.1
	c0,0-0.1,0-0.1-0.2c0,0-0.1-0.2,0-0.9c0.1-0.8,0.5-1.5,1.1-2.1c0.7-0.6,1.7-1.1,2.9-1.4c0.3-0.1,0.6-0.1,0.9-0.2L229.2,290.8z
	 M233.5,276.7c-1.1-1-2.7-1.3-5-0.8c-0.8,0.2-1.6,0.4-2.4,0.7c-0.8,0.3-1.5,0.6-2.1,0.9c-0.4,0.2-0.6,0.6-0.7,1
	c-0.1,0.4-0.1,0.8-0.1,1.3c0,0.5,0.1,0.9,0.2,1.2c0.1,0.3,0.4,0.6,0.7,0.7c0.3,0.1,0.7,0.1,1-0.1c0.5-0.3,1-0.5,1.6-0.8
	c0.6-0.2,1.2-0.4,1.9-0.6c0.8-0.2,1.3-0.1,1.4,0.1c0.1,0.1,0.3,0.7,0.1,1.9l0,0c-0.1,0-0.2,0-0.3,0c-0.5,0.1-1.2,0.2-1.9,0.3
	c-1,0.2-1.9,0.6-2.8,1c-0.9,0.5-1.7,1-2.3,1.7c-0.7,0.7-1.3,1.5-1.7,2.3c-0.5,0.9-0.8,1.9-0.9,2.9c-0.4,3,0.7,4.3,1.6,4.9
	c0.7,0.5,1.6,0.7,2.7,0.7c0.7,0,1.4-0.1,2.2-0.3c0.9-0.2,1.9-0.5,2.9-0.9c1-0.4,1.9-0.7,2.6-1c0.4-0.2,0.7-0.6,0.7-1l1.5-11.1
	C235,279.5,234.7,277.8,233.5,276.7"/>
<path class="st1" d="M255.8,270.7c-0.2-0.2-0.6-0.4-0.9-0.3c-0.2,0-0.4,0-0.5,0.1l-0.3,0.1c-1.2,0.3-2.3,0.8-3.2,1.6
	c0-0.1-0.1-0.1-0.2-0.2c-0.3-0.3-0.6-0.4-0.9-0.4c-0.2,0-0.3,0-0.5,0.1c-0.2,0-0.3,0.1-0.5,0.1c-0.2,0-0.3,0.1-0.5,0.1
	c-0.2,0-0.3,0.1-0.5,0.2c-0.4,0.2-0.8,0.6-0.8,1.1l-2.3,16.8c-0.1,0.4,0.1,0.8,0.3,1.1c0.2,0.3,0.6,0.4,0.9,0.4c0,0,0,0,0,0
	c0.1,0,0.4,0,0.6-0.1c0.2,0,0.4-0.1,0.5-0.1c0.1,0,0.3-0.1,0.5-0.1c0.3-0.1,0.5-0.1,0.6-0.2c0.4-0.2,0.7-0.6,0.8-1l1.2-8.6
	c0.3-1.9,0.8-3.4,1.5-4.3c0.7-0.9,1.6-1.5,2.6-1.7l0.3-0.1c0,0,0.1,0,0.2,0c0.5,0,0.9-0.4,1.1-0.9c0.1-0.4,0.2-0.8,0.3-1.2
	c0.1-0.4,0.1-0.8,0.1-1.2C256.2,271.3,256,270.9,255.8,270.7"/>
</svg>
