<?xml version="1.0" encoding="utf-8"?>
<!-- Generator: Adobe Illustrator 21.0.0, SVG Export Plug-In . SVG Version: 6.00 Build 0)  -->
<svg version="1.1" id="Layer_1" xmlns="http://www.w3.org/2000/svg" xmlns:xlink="http://www.w3.org/1999/xlink" x="0px" y="0px"
	 viewBox="0 0 48.7 41" style="enable-background:new 0 0 48.7 41;" xml:space="preserve">
<style type="text/css">
	.st0{fill:#FFFFFF;}
</style>
<path class="st0" d="M39.1,24.5c-3.8-3.8-8.8-6-14.1-6.1V10h2.7v1.7c0,0.3,0.3,0.6,0.6,0.6H39c0.3,0,0.6-0.3,0.6-0.6V4.1
	c0-0.3-0.3-0.6-0.6-0.6h-3V1.7c0-0.3-0.3-0.6-0.6-0.6h-11c-0.3,0-0.6,0.3-0.6,0.6v7.7v9c-5.3,0.2-10.3,2.3-14.1,6.1
	c-3.9,3.9-6.1,9.2-6.1,14.8c0,0.3,0.3,0.6,0.6,0.6c0.3,0,0.6-0.3,0.6-0.6c0-0.8,0.1-1.7,0.2-2.5h8.7c0,0.8-0.1,1.6-0.1,2.5
	c0,0.3,0.3,0.6,0.6,0.6c0.3,0,0.6-0.3,0.6-0.6c0-0.8,0-1.7,0.1-2.5h8.9v2.5c0,0.3,0.3,0.6,0.6,0.6c0.3,0,0.6-0.3,0.6-0.6v-2.5h8.9
	c0,0.8,0.1,1.6,0.1,2.5c0,0.3,0.3,0.6,0.6,0.6c0.3,0,0.6-0.3,0.6-0.6c0-0.8,0-1.7-0.1-2.5h8.7c0.1,0.8,0.2,1.6,0.2,2.5
	c0,0.3,0.3,0.6,0.6,0.6s0.6-0.3,0.6-0.6C45.2,33.7,43.1,28.4,39.1,24.5z M38.3,25.5c-1.5,0.7-3.2,1.4-5.1,1.8
	c-0.3-0.9-0.7-1.9-1.1-2.7c-1-1.9-2.1-3.5-3.4-4.5c3.6,0.8,6.8,2.6,9.5,5.3C38.3,25.4,38.3,25.5,38.3,25.5z M23.7,19.7v8.7
	c-2.5,0-4.8-0.3-7.1-0.8c0.3-0.8,0.7-1.7,1-2.4C19.3,21.9,21.5,20,23.7,19.7z M25,19.7c2.2,0.3,4.4,2.2,6,5.5c0.4,0.8,0.7,1.6,1,2.4
	c-2.2,0.5-4.6,0.7-7.1,0.8V19.7z M38.4,4.7v6.4H29V10h6.4c0.3,0,0.6-0.3,0.6-0.6V4.7H38.4z M25,2.4h9.8v6.4H25V2.4z M19.9,20.1
	c-1.3,1.1-2.4,2.6-3.4,4.5c-0.4,0.8-0.8,1.7-1.1,2.7c-1.9-0.5-3.6-1.1-5.1-1.8c0,0,0.1-0.1,0.1-0.1C13.1,22.7,16.4,20.9,19.9,20.1z
	 M5.1,35.5c0.6-3.3,2.1-6.5,4.4-9.1c1.6,0.9,3.5,1.6,5.6,2.1c-0.7,2.1-1.1,4.5-1.3,7H5.1z M14.9,35.5c0.2-2.4,0.7-4.7,1.3-6.7
	c2.4,0.5,4.9,0.8,7.5,0.8v5.9H14.9z M25,35.5v-5.9c2.6,0,5.1-0.3,7.5-0.8c0.6,2.1,1.1,4.3,1.3,6.7H25z M35,35.5
	c-0.2-2.5-0.7-4.8-1.3-7c2.1-0.5,3.9-1.2,5.6-2.1c2.3,2.6,3.8,5.7,4.4,9.1H35z"/>
</svg>
