<?xml version="1.0" encoding="utf-8"?>
<!-- Generator: Adobe Illustrator 21.0.0, SVG Export Plug-In . SVG Version: 6.00 Build 0)  -->
<svg version="1.1" id="Layer_1" xmlns="http://www.w3.org/2000/svg" xmlns:xlink="http://www.w3.org/1999/xlink" x="0px" y="0px"
	 viewBox="0 0 48.7 41" style="enable-background:new 0 0 48.7 41;" xml:space="preserve">
<style type="text/css">
	.st0{fill:#FFFFFF;}
</style>
<g>
	<path class="st0" d="M37,10.5c-0.3,0.2-0.3,0.6-0.1,0.9c2.1,2.8,3.2,6.1,3.2,9.8c0,9-7.4,16.4-16.4,16.4c-9,0-16.4-7.4-16.4-16.4
		c0-9,7.4-16.4,16.4-16.4c3.3,0,6.4,1,9.1,2.8c0.3,0.2,0.7,0.1,0.8-0.2c0.2-0.3,0.1-0.7-0.2-0.8c-2.9-1.9-6.3-3-9.8-3
		c-4.7,0-9.1,1.8-12.5,5.2C7.9,12,6,16.4,6,21.1c0,4.7,1.8,9.1,5.2,12.5c3.3,3.3,7.8,5.2,12.5,5.2s9.1-1.8,12.5-5.2
		c3.3-3.3,5.2-7.8,5.2-12.5c0-3.9-1.2-7.5-3.4-10.5C37.6,10.4,37.3,10.3,37,10.5z"/>
	<path class="st0" d="M8.6,20.6c-0.3,0-0.6,0.3-0.6,0.6c0,0.3,0.3,0.6,0.6,0.6H9c0.3,0,0.6-0.3,0.6-0.6c0-0.3-0.3-0.6-0.6-0.6H8.6z"
		/>
	<path class="st0" d="M38.7,21.8c0.3,0,0.6-0.3,0.6-0.6c0-0.3-0.3-0.6-0.6-0.6h-0.6c-0.3,0-0.6,0.3-0.6,0.6c0,0.3,0.3,0.6,0.6,0.6
		H38.7z"/>
	<path class="st0" d="M24.3,36.3v-0.5c0-0.3-0.3-0.6-0.6-0.6c-0.3,0-0.6,0.3-0.6,0.6v0.5c0,0.3,0.3,0.6,0.6,0.6
		C24,36.9,24.3,36.6,24.3,36.3z"/>
	<path class="st0" d="M23.1,6.2v0.5c0,0.3,0.3,0.6,0.6,0.6c0.3,0,0.6-0.3,0.6-0.6V6.2c0-0.3-0.3-0.6-0.6-0.6
		C23.3,5.5,23.1,5.8,23.1,6.2z"/>
	<path class="st0" d="M12.9,31.2l-0.3,0.3c-0.2,0.2-0.2,0.6,0,0.9c0.1,0.1,0.3,0.2,0.4,0.2s0.3-0.1,0.4-0.2l0.3-0.3
		c0.2-0.2,0.2-0.6,0-0.9C13.5,30.9,13.1,30.9,12.9,31.2z"/>
	<path class="st0" d="M34.3,32.5c0.2,0,0.3-0.1,0.4-0.2c0.2-0.2,0.2-0.6,0-0.9l-0.3-0.3c-0.2-0.2-0.6-0.2-0.9,0
		c-0.2,0.2-0.2,0.6,0,0.9l0.3,0.3C34,32.4,34.2,32.5,34.3,32.5z"/>
	<path class="st0" d="M13.8,10.5l-0.3-0.3c-0.2-0.2-0.6-0.2-0.9,0c-0.2,0.2-0.2,0.6,0,0.9l0.3,0.3c0.1,0.1,0.3,0.2,0.4,0.2
		c0.2,0,0.3-0.1,0.4-0.2C14,11.1,14,10.7,13.8,10.5z"/>
	<path class="st0" d="M42.5,2.4c-0.2-0.2-0.6-0.2-0.9,0l-18,18l-5.4-5.1c-0.2-0.2-0.6-0.2-0.9,0c-0.2,0.2-0.2,0.6,0,0.9l5.9,5.5
		c0.1,0.1,0.3,0.2,0.4,0.2c0.2,0,0.3-0.1,0.4-0.2L42.5,3.3C42.7,3.1,42.7,2.7,42.5,2.4z"/>
</g>
</svg>
