<?xml version="1.0" encoding="utf-8"?>
<!-- Generator: Adobe Illustrator 21.0.0, SVG Export Plug-In . SVG Version: 6.00 Build 0)  -->
<svg version="1.1" id="Layer_1" xmlns="http://www.w3.org/2000/svg" xmlns:xlink="http://www.w3.org/1999/xlink" x="0px" y="0px"
	 viewBox="0 0 48.7 41" style="enable-background:new 0 0 48.7 41;" xml:space="preserve">
<style type="text/css">
	.st0{fill:#FFFFFF;}
</style>
<g>
	<path class="st0" d="M41.8,12.8h-1c-0.7,0-1.1-0.4-1.3-0.8c-0.2-0.4-0.2-1,0.3-1.5l0.7-0.7c1-1,1-2.5,0-3.5c-1-1-2.5-1-3.5,0
		L36.4,7c-0.5,0.5-1.1,0.5-1.5,0.3c-0.4-0.2-0.8-0.6-0.8-1.3V5c0-1.4-1.1-2.5-2.5-2.5S29.1,3.6,29.1,5v1c0,0.7-0.4,1.1-0.8,1.3
		c-0.4,0.2-1,0.2-1.5-0.3l-0.7-0.7c-0.5-0.5-1.1-0.7-1.7-0.7c-0.7,0-1.3,0.3-1.7,0.7c-0.5,0.5-0.7,1.1-0.7,1.7
		c0,0.7,0.3,1.3,0.7,1.7l0.7,0.7c0.5,0.5,0.5,1.1,0.3,1.5c-0.2,0.4-0.6,0.8-1.3,0.8h-1c-1.4,0-2.5,1.1-2.5,2.5
		c0,0.8,0.4,1.6,1.1,2.1c0.3,0.2,0.6,0.1,0.8-0.2c0.2-0.3,0.1-0.6-0.2-0.8c-0.4-0.3-0.6-0.7-0.6-1.1c0-0.7,0.6-1.4,1.4-1.4h1
		c0.3,0,0.5,0,0.8-0.1c-0.5,2.7,0.3,5.5,2.4,7.6l0,0c1.4,1.4,2.2,3.3,2.2,5.3c0,2-0.8,3.9-2.2,5.3c-2.9,2.9-7.7,3-10.6,0.1
		c-1.4-1.4-2.2-3.3-2.2-5.3c0-2,0.8-3.9,2.2-5.3l0,0c1.5-1.5,3.7-2.3,5.8-2.2c0.3,0,0.6-0.2,0.6-0.5c0-0.3-0.2-0.6-0.5-0.6
		c-1.5-0.1-3,0.2-4.3,0.8c0,0,0,0,0,0c-0.3,0-0.8-0.1-1.2-0.4l-0.7-0.7c-1-1-2.5-1-3.5,0c-1,1-1,2.5,0,3.5l0.7,0.7
		c0.5,0.5,0.5,1.1,0.3,1.5c-0.2,0.4-0.6,0.8-1.3,0.8h-1c-0.7,0-1.3,0.3-1.7,0.7c-0.5,0.5-0.7,1.1-0.7,1.7c0,1.4,1.1,2.5,2.5,2.5h1
		c0.7,0,1.1,0.4,1.3,0.8c0.2,0.4,0.2,1-0.3,1.5l-0.7,0.7c-1,1-1,2.5,0,3.5c1,1,2.5,1,3.5,0l0.7-0.7c0.5-0.5,1.1-0.5,1.5-0.3
		c0.4,0.2,0.8,0.6,0.8,1.3v1c0,1.4,1.1,2.5,2.5,2.5s2.5-1.1,2.5-2.5v-1c0-0.7,0.4-1.1,0.8-1.3c0.4-0.2,1-0.2,1.5,0.3l0.7,0.7
		c1,1,2.5,1,3.5,0c0.5-0.5,0.7-1.1,0.7-1.7c0-0.7-0.3-1.3-0.7-1.7l-0.7-0.7c-0.5-0.5-0.5-1.1-0.3-1.5c0.2-0.4,0.6-0.8,1.3-0.8h1
		c1.4,0,2.5-1.1,2.5-2.5c0-1.4-1.1-2.5-2.5-2.5c-0.3,0-0.6,0.3-0.6,0.6s0.3,0.6,0.6,0.6c0.7,0,1.4,0.6,1.4,1.4
		c0,0.7-0.6,1.4-1.4,1.4h-1c-0.2,0-0.5,0-0.7,0.1c0.1-0.5,0.1-1,0.1-1.6c0-2.3-0.9-4.4-2.5-6.1l0,0c-1.4-1.4-2.2-3.3-2.2-5.3
		c0-2,0.8-3.9,2.2-5.3c1.4-1.4,3.2-2.2,5.2-2.2c2,0,3.8,0.7,5.3,2c1.5,1.4,2.3,3.3,2.3,5.3c0,2-0.8,3.9-2.2,5.4l-0.1,0.1
		c-1.5,1.5-3.5,2.3-5.6,2.2c-0.3,0-0.6,0.2-0.6,0.5c0,0.3,0.2,0.6,0.5,0.6c1.1,0,2.2-0.1,3.3-0.5c0,0,0.1,0,0.1,0
		c0.6-0.2,1.3-0.4,1.8,0.2l0.7,0.7c0.5,0.5,1.1,0.7,1.7,0.7c0.6,0,1.3-0.2,1.7-0.7c1-1,1-2.5,0-3.5L39.9,20
		c-0.5-0.5-0.5-1.1-0.3-1.5c0.2-0.4,0.6-0.8,1.3-0.8h1c1.4,0,2.5-1.1,2.5-2.5C44.3,13.9,43.2,12.8,41.8,12.8z M11.9,20.4
		c-0.5-0.5-0.5-1.4,0-1.9c0.5-0.5,1.4-0.5,1.9,0l0.7,0.7c0.2,0.2,0.4,0.3,0.6,0.5c-0.4,0.3-0.7,0.6-1,0.9l0,0
		c-0.4,0.4-0.7,0.8-1,1.2c-0.1-0.2-0.3-0.5-0.5-0.6L11.9,20.4z M9.9,28.1c-0.7,0-1.4-0.6-1.4-1.4c0-0.4,0.1-0.7,0.4-1
		c0.3-0.3,0.6-0.4,1-0.4h1c0.3,0,0.6,0,0.8-0.1c-0.1,0.5-0.1,1-0.1,1.5c0,0.5,0.1,1,0.1,1.5c-0.3-0.1-0.5-0.1-0.8-0.1H9.9z
		 M14.5,34.2l-0.7,0.7c-0.5,0.5-1.4,0.5-1.9,0c-0.5-0.5-0.5-1.4,0-1.9l0.7-0.7c0.2-0.2,0.4-0.5,0.5-0.7c0.3,0.4,0.6,0.8,1,1.2
		c0.4,0.4,0.7,0.7,1.2,1C15,33.8,14.7,34,14.5,34.2z M21.5,37c0,0.7-0.6,1.4-1.4,1.4c-0.7,0-1.4-0.6-1.4-1.4v-1
		c0-0.3-0.1-0.6-0.2-0.9c0.5,0.1,1,0.1,1.5,0.1c0.5,0,1,0,1.5-0.1c-0.1,0.3-0.2,0.6-0.2,0.9V37z M27.6,32.3l0.7,0.7
		c0.5,0.5,0.5,1.4,0,1.9c-0.5,0.5-1.4,0.5-1.9,0l-0.7-0.7c-0.2-0.2-0.4-0.4-0.7-0.5c0.5-0.3,0.9-0.7,1.3-1.1c0.3-0.3,0.6-0.7,0.9-1
		C27.2,31.9,27.4,32.1,27.6,32.3z M25.5,9.2c-0.3,0.3-0.7,0.7-0.9,1.1c-0.1-0.2-0.3-0.4-0.5-0.6L23.4,9C23.1,8.7,23,8.4,23,8
		c0-0.4,0.1-0.7,0.4-1c0.3-0.3,0.6-0.4,1-0.4c0.4,0,0.7,0.1,1,0.4L26,7.7c0.2,0.2,0.4,0.4,0.6,0.5C26.2,8.5,25.8,8.8,25.5,9.2z
		 M31.5,6.6c-0.5,0-0.9,0.1-1.4,0.1c0.1-0.2,0.1-0.5,0.1-0.8V5c0-0.7,0.6-1.4,1.4-1.4c0.7,0,1.4,0.6,1.4,1.4v1c0,0.3,0,0.5,0.1,0.8
		C32.5,6.7,32,6.6,31.5,6.6z M37.5,9c-0.3-0.3-0.6-0.5-1-0.8c0.2-0.1,0.4-0.3,0.6-0.4L37.9,7c0.3-0.3,0.6-0.4,1-0.4
		c0.4,0,0.7,0.1,1,0.4c0.3,0.3,0.4,0.6,0.4,1c0,0.4-0.1,0.7-0.4,1l-0.7,0.7c-0.2,0.2-0.3,0.4-0.5,0.6C38.3,9.8,37.9,9.4,37.5,9z
		 M39.8,21.5c0.5,0.5,0.5,1.4,0,1.9c-0.5,0.5-1.4,0.5-1.9,0l-0.7-0.7c-0.2-0.2-0.4-0.4-0.7-0.5c0.4-0.3,0.7-0.6,1.1-0.9l0.1-0.1
		c0.3-0.3,0.7-0.7,0.9-1.1c0.1,0.2,0.3,0.5,0.5,0.7L39.8,21.5z M41.8,16.6h-1c-0.3,0-0.5,0-0.8,0.1c0.1-0.5,0.1-1.1,0.1-1.6
		c0-0.4,0-0.9-0.1-1.3c0.2,0.1,0.5,0.1,0.8,0.1h1c0.7,0,1.4,0.6,1.4,1.4C43.2,16,42.6,16.6,41.8,16.6z"/>
	<path class="st0" d="M17.5,24c-0.7,0.7-1.1,1.7-1.1,2.7c0,1,0.4,2,1.1,2.7c0.7,0.7,1.7,1.1,2.7,1.1c1,0,1.9-0.4,2.7-1.1
		c0.7-0.7,1.1-1.7,1.1-2.7c0-1-0.4-2-1.1-2.7c-0.7-0.7-1.7-1.1-2.7-1.1C19.2,22.9,18.2,23.2,17.5,24z M22.8,26.6
		c0,0.7-0.3,1.4-0.8,1.9c-1,1-2.7,1-3.7,0c-0.5-0.5-0.8-1.2-0.8-1.9c0-0.7,0.3-1.4,0.8-1.9c0.5-0.5,1.2-0.8,1.9-0.8
		c0.7,0,1.4,0.3,1.9,0.8C22.6,25.2,22.8,25.9,22.8,26.6z"/>
	<path class="st0" d="M34.2,17.9c0.7-0.7,1.1-1.7,1.1-2.7c0-1-0.4-2-1.1-2.7c-1.5-1.5-3.9-1.5-5.3,0c-0.7,0.7-1.1,1.7-1.1,2.7
		c0,1,0.4,2,1.1,2.7c0.7,0.7,1.7,1.1,2.7,1.1C32.5,19,33.5,18.6,34.2,17.9z M28.9,15.2c0-0.7,0.3-1.4,0.8-1.9
		c0.5-0.5,1.2-0.8,1.9-0.8c0.7,0,1.4,0.3,1.9,0.8c0.5,0.5,0.8,1.2,0.8,1.9c0,0.7-0.3,1.4-0.8,1.9c-1,1-2.7,1-3.7,0
		C29.2,16.6,28.9,15.9,28.9,15.2z"/>
</g>
</svg>
