<?xml version="1.0" encoding="utf-8"?>
<!-- Generator: Adobe Illustrator 21.0.0, SVG Export Plug-In . SVG Version: 6.00 Build 0)  -->
<svg version="1.1" id="Layer_1" xmlns="http://www.w3.org/2000/svg" xmlns:xlink="http://www.w3.org/1999/xlink" x="0px" y="0px"
	 viewBox="0 0 48.7 41" style="enable-background:new 0 0 48.7 41;" xml:space="preserve">
<style type="text/css">
	.st0{fill:#FFFFFF;}
</style>
<g>
	<path class="st0" d="M2.9,20.4c-0.1,0-0.2,0-0.3-0.1c-0.3-0.1-0.5-0.4-0.5-0.7v-9.4c0-0.2,0.1-0.4,0.2-0.6L10,2.3
		c0.2-0.2,0.6-0.3,0.9-0.2c0.3,0.1,0.5,0.4,0.5,0.7v9.9c0,0.2-0.1,0.5-0.3,0.6l-7.7,6.8C3.3,20.4,3.1,20.4,2.9,20.4z M3.8,10.6v7.2
		l6-5.4V4.8L3.8,10.6z"/>
	<path class="st0" d="M38.7,37.9H10.6c-0.4,0-0.8-0.4-0.8-0.8V2.9c0-0.4,0.4-0.8,0.8-0.8h8c0.4,0,0.8,0.4,0.8,0.8
		c0,2.9,2.3,5.2,5.2,5.2c2.9,0,5.2-2.3,5.2-5.2c0-0.4,0.4-0.8,0.8-0.8h8c0.4,0,0.8,0.4,0.8,0.8v34.3C39.5,37.6,39.1,37.9,38.7,37.9z
		 M11.4,36.3h26.5V3.7h-6.4c-0.4,3.4-3.3,6-6.8,6c-3.5,0-6.4-2.6-6.8-6h-6.4V36.3z"/>
	<path class="st0" d="M15,35.2h-1.6c-0.4,0-0.8-0.4-0.8-0.8v-1.6c0-0.4,0.4-0.8,0.8-0.8s0.8,0.4,0.8,0.8v0.8H15
		c0.4,0,0.8,0.4,0.8,0.8S15.4,35.2,15,35.2z"/>
	<path class="st0" d="M31.5,35.2h-2.8c-0.4,0-0.8-0.4-0.8-0.8s0.4-0.8,0.8-0.8h2.8c0.4,0,0.8,0.4,0.8,0.8S32,35.2,31.5,35.2z
		 M26,35.2h-2.8c-0.4,0-0.8-0.4-0.8-0.8s0.4-0.8,0.8-0.8H26c0.4,0,0.8,0.4,0.8,0.8S26.5,35.2,26,35.2z M20.5,35.2h-2.8
		c-0.4,0-0.8-0.4-0.8-0.8s0.4-0.8,0.8-0.8h2.8c0.4,0,0.8,0.4,0.8,0.8S20.9,35.2,20.5,35.2z"/>
	<path class="st0" d="M35.9,35.2h-1.6c-0.4,0-0.8-0.4-0.8-0.8s0.4-0.8,0.8-0.8h0.8v-0.8c0-0.4,0.4-0.8,0.8-0.8
		c0.4,0,0.8,0.4,0.8,0.8v1.6C36.7,34.8,36.4,35.2,35.9,35.2z"/>
	<path class="st0" d="M35.9,29.9c-0.4,0-0.8-0.4-0.8-0.8v-3.6c0-0.4,0.4-0.8,0.8-0.8c0.4,0,0.8,0.4,0.8,0.8v3.6
		C36.7,29.5,36.4,29.9,35.9,29.9z M35.9,22.6c-0.4,0-0.8-0.4-0.8-0.8v-3.6c0-0.4,0.4-0.8,0.8-0.8c0.4,0,0.8,0.4,0.8,0.8v3.6
		C36.7,22.3,36.4,22.6,35.9,22.6z M35.9,15.3c-0.4,0-0.8-0.4-0.8-0.8v-3.6c0-0.4,0.4-0.8,0.8-0.8c0.4,0,0.8,0.4,0.8,0.8v3.6
		C36.7,15,36.4,15.3,35.9,15.3z"/>
	<path class="st0" d="M35.9,8.1c-0.4,0-0.8-0.4-0.8-0.8V6.5h-1.5c-0.1,0.4-0.3,0.7-0.5,1.1C32.8,7.9,32.4,8,32,7.8
		c-0.4-0.2-0.5-0.7-0.3-1.1c0.2-0.4,0.4-0.9,0.6-1.3c0.1-0.3,0.4-0.6,0.8-0.6h2.9c0.4,0,0.8,0.4,0.8,0.8v1.6
		C36.7,7.7,36.4,8.1,35.9,8.1z"/>
	<path class="st0" d="M22.8,12.3c-0.1,0-0.1,0-0.2,0c-1.3-0.3-2.6-0.9-3.7-1.7c-0.4-0.3-0.4-0.8-0.2-1.1C19,9.1,19.5,9,19.9,9.3
		c0.9,0.7,2,1.2,3.1,1.4c0.4,0.1,0.7,0.5,0.6,1C23.5,12,23.2,12.3,22.8,12.3z M26.5,12.3c-0.4,0-0.7-0.3-0.8-0.6
		c-0.1-0.4,0.2-0.9,0.6-1c1.1-0.2,2.2-0.7,3.1-1.4c0.4-0.3,0.9-0.2,1.1,0.2c0.3,0.4,0.2,0.9-0.2,1.1c-1.1,0.8-2.4,1.4-3.7,1.7
		C26.6,12.3,26.6,12.3,26.5,12.3z"/>
	<path class="st0" d="M13.4,8.1c-0.4,0-0.8-0.4-0.8-0.8V5.6c0-0.4,0.4-0.8,0.8-0.8h2.9c0.3,0,0.7,0.2,0.8,0.6
		c0.2,0.5,0.4,0.9,0.6,1.3c0.2,0.4,0.1,0.9-0.3,1.1c-0.4,0.2-0.9,0.1-1.1-0.3c-0.2-0.3-0.4-0.7-0.5-1.1h-1.5v0.8
		C14.2,7.7,13.8,8.1,13.4,8.1z"/>
	<path class="st0" d="M13.4,29.9c-0.4,0-0.8-0.4-0.8-0.8v-3.6c0-0.4,0.4-0.8,0.8-0.8s0.8,0.4,0.8,0.8v3.6
		C14.2,29.5,13.8,29.9,13.4,29.9z M13.4,22.6c-0.4,0-0.8-0.4-0.8-0.8v-3.6c0-0.4,0.4-0.8,0.8-0.8s0.8,0.4,0.8,0.8v3.6
		C14.2,22.3,13.8,22.6,13.4,22.6z M13.4,15.3c-0.4,0-0.8-0.4-0.8-0.8v-3.6c0-0.4,0.4-0.8,0.8-0.8s0.8,0.4,0.8,0.8v3.6
		C14.2,15,13.8,15.3,13.4,15.3z"/>
	<path class="st0" d="M46.3,20.4c-0.2,0-0.4-0.1-0.5-0.2l-7.7-6.8c-0.2-0.2-0.3-0.4-0.3-0.6V2.9c0-0.3,0.2-0.6,0.5-0.7
		C38.7,2,39,2.1,39.2,2.3l7.7,7.4c0.2,0.2,0.2,0.4,0.2,0.6v9.4c0,0.3-0.2,0.6-0.5,0.7C46.6,20.4,46.4,20.4,46.3,20.4z M39.5,12.4
		l6,5.4v-7.2l-6-5.8V12.4z"/>
	<path class="st0" d="M5.3,18.3c-0.4,0-0.8-0.4-0.8-0.8V8c0-0.4,0.4-0.8,0.8-0.8c0.4,0,0.8,0.4,0.8,0.8v9.5
		C6.1,17.9,5.8,18.3,5.3,18.3z"/>
	<path class="st0" d="M43.9,18.3c-0.4,0-0.8-0.4-0.8-0.8V8c0-0.4,0.4-0.8,0.8-0.8c0.4,0,0.8,0.4,0.8,0.8v9.5
		C44.8,17.9,44.4,18.3,43.9,18.3z"/>
</g>
</svg>
