<?xml version="1.0" encoding="utf-8"?>
<!-- Generator: Adobe Illustrator 21.0.0, SVG Export Plug-In . SVG Version: 6.00 Build 0)  -->
<svg version="1.1" id="Layer_1" xmlns="http://www.w3.org/2000/svg" xmlns:xlink="http://www.w3.org/1999/xlink" x="0px" y="0px"
	 viewBox="0 0 57.8 58.5" style="enable-background:new 0 0 57.8 58.5;" xml:space="preserve">
<style type="text/css">
	.st0{fill:#FF0000;}
	.st1{fill:#FFFFFF;}
</style>
<g id="Layer_2">
	<g>
		<g>
			<path class="st0" d="M28.9,56.5c-15,0-27.3-12.2-27.3-27.3c0-15,12.2-27.3,27.3-27.3c15,0,27.3,12.2,27.3,27.3
				C56.2,44.3,44,56.5,28.9,56.5z"/>
		</g>
		<g>
			<g>
				<path class="st1" d="M45.2,25.1c0-3.9-3.1-7-7-7H20.1c-3.9,0-7,3.1-7,7v8.5c0,3.9,3.1,7,7,7h18.2c3.9,0,7-3.1,7-7V25.1z
					 M33.8,29.8l-7.3,4c-0.3,0.2-0.6-0.1-0.6-0.4v-8.2c0-0.4,0.3-0.6,0.6-0.4l7.3,4.2C34.2,29.1,34.1,29.6,33.8,29.8z"/>
			</g>
		</g>
	</g>
</g>
</svg>
